<mxfile host="app.diagrams.net" modified="2022-10-13T04:04:25.967Z" agent="5.0 (Windows NT 10.0; Win64; x64) AppleWebKit/537.36 (KHTML, like Gecko) Chrome/106.0.0.0 Safari/537.36 Edg/106.0.1370.37" etag="sY0rQwOkDfIuNxD-braq" version="20.0.3" type="github">
  <diagram id="R2lEEEUBdFMjLlhIrx00" name="Page-1">
    <mxGraphModel dx="930" dy="595" grid="0" gridSize="10" guides="1" tooltips="1" connect="1" arrows="1" fold="1" page="0" pageScale="1" pageWidth="1000" pageHeight="700" math="0" shadow="0" extFonts="Permanent Marker^https://fonts.googleapis.com/css?family=Permanent+Marker">
      <root>
        <mxCell id="0" />
        <mxCell id="1" parent="0" />
        <mxCell id="C-vyLk0tnHw3VtMMgP7b-1" value="" style="edgeStyle=orthogonalEdgeStyle;endArrow=ERmany;startArrow=ERmany;endFill=0;startFill=0;entryX=0;entryY=0.5;entryDx=0;entryDy=0;curved=1;exitX=0.5;exitY=0;exitDx=0;exitDy=0;" parent="1" source="C-vyLk0tnHw3VtMMgP7b-23" target="BOl2dM1y0eal6JlmimQa-18" edge="1">
          <mxGeometry width="100" height="100" relative="1" as="geometry">
            <mxPoint x="246" y="223" as="sourcePoint" />
            <mxPoint x="472.5" y="790" as="targetPoint" />
          </mxGeometry>
        </mxCell>
        <mxCell id="C-vyLk0tnHw3VtMMgP7b-2" value="Workouts" style="shape=table;startSize=30;container=1;collapsible=1;childLayout=tableLayout;fixedRows=1;rowLines=0;fontStyle=1;align=center;resizeLast=1;" parent="1" vertex="1">
          <mxGeometry x="733" y="71.39999999999999" width="250" height="143.2033333333333" as="geometry" />
        </mxCell>
        <mxCell id="C-vyLk0tnHw3VtMMgP7b-3" value="" style="shape=partialRectangle;collapsible=0;dropTarget=0;pointerEvents=0;fillColor=none;points=[[0,0.5],[1,0.5]];portConstraint=eastwest;top=0;left=0;right=0;bottom=1;" parent="C-vyLk0tnHw3VtMMgP7b-2" vertex="1">
          <mxGeometry y="30" width="250" height="32" as="geometry" />
        </mxCell>
        <mxCell id="C-vyLk0tnHw3VtMMgP7b-4" value="PK" style="shape=partialRectangle;overflow=hidden;connectable=0;fillColor=none;top=0;left=0;bottom=0;right=0;fontStyle=1;" parent="C-vyLk0tnHw3VtMMgP7b-3" vertex="1">
          <mxGeometry width="30" height="32" as="geometry">
            <mxRectangle width="30" height="32" as="alternateBounds" />
          </mxGeometry>
        </mxCell>
        <mxCell id="C-vyLk0tnHw3VtMMgP7b-5" value="workoutID int NOT NULL " style="shape=partialRectangle;overflow=hidden;connectable=0;fillColor=none;top=0;left=0;bottom=0;right=0;align=left;spacingLeft=6;fontStyle=5;" parent="C-vyLk0tnHw3VtMMgP7b-3" vertex="1">
          <mxGeometry x="30" width="220" height="32" as="geometry">
            <mxRectangle width="220" height="32" as="alternateBounds" />
          </mxGeometry>
        </mxCell>
        <mxCell id="C-vyLk0tnHw3VtMMgP7b-6" value="" style="shape=partialRectangle;collapsible=0;dropTarget=0;pointerEvents=0;fillColor=none;points=[[0,0.5],[1,0.5]];portConstraint=eastwest;top=0;left=0;right=0;bottom=0;" parent="C-vyLk0tnHw3VtMMgP7b-2" vertex="1">
          <mxGeometry y="62" width="250" height="21" as="geometry" />
        </mxCell>
        <mxCell id="C-vyLk0tnHw3VtMMgP7b-7" value="FK" style="shape=partialRectangle;overflow=hidden;connectable=0;fillColor=none;top=0;left=0;bottom=0;right=0;" parent="C-vyLk0tnHw3VtMMgP7b-6" vertex="1">
          <mxGeometry width="30" height="21" as="geometry">
            <mxRectangle width="30" height="21" as="alternateBounds" />
          </mxGeometry>
        </mxCell>
        <mxCell id="C-vyLk0tnHw3VtMMgP7b-8" value="userID int NOT NULL" style="shape=partialRectangle;overflow=hidden;connectable=0;fillColor=none;top=0;left=0;bottom=0;right=0;align=left;spacingLeft=6;" parent="C-vyLk0tnHw3VtMMgP7b-6" vertex="1">
          <mxGeometry x="30" width="220" height="21" as="geometry">
            <mxRectangle width="220" height="21" as="alternateBounds" />
          </mxGeometry>
        </mxCell>
        <mxCell id="BOl2dM1y0eal6JlmimQa-110" value="" style="shape=tableRow;horizontal=0;startSize=0;swimlaneHead=0;swimlaneBody=0;fillColor=none;collapsible=0;dropTarget=0;points=[[0,0.5],[1,0.5]];portConstraint=eastwest;top=0;left=0;right=0;bottom=0;" parent="C-vyLk0tnHw3VtMMgP7b-2" vertex="1">
          <mxGeometry y="83" width="250" height="30" as="geometry" />
        </mxCell>
        <mxCell id="BOl2dM1y0eal6JlmimQa-111" value="" style="shape=partialRectangle;connectable=0;fillColor=none;top=0;left=0;bottom=0;right=0;editable=1;overflow=hidden;" parent="BOl2dM1y0eal6JlmimQa-110" vertex="1">
          <mxGeometry width="30" height="30" as="geometry">
            <mxRectangle width="30" height="30" as="alternateBounds" />
          </mxGeometry>
        </mxCell>
        <mxCell id="BOl2dM1y0eal6JlmimQa-112" value="workoutName char(50) NOT NULL" style="shape=partialRectangle;connectable=0;fillColor=none;top=0;left=0;bottom=0;right=0;align=left;spacingLeft=6;overflow=hidden;" parent="BOl2dM1y0eal6JlmimQa-110" vertex="1">
          <mxGeometry x="30" width="220" height="30" as="geometry">
            <mxRectangle width="220" height="30" as="alternateBounds" />
          </mxGeometry>
        </mxCell>
        <mxCell id="C-vyLk0tnHw3VtMMgP7b-9" value="" style="shape=partialRectangle;collapsible=0;dropTarget=0;pointerEvents=0;fillColor=none;points=[[0,0.5],[1,0.5]];portConstraint=eastwest;top=0;left=0;right=0;bottom=0;" parent="C-vyLk0tnHw3VtMMgP7b-2" vertex="1">
          <mxGeometry y="113" width="250" height="30" as="geometry" />
        </mxCell>
        <mxCell id="C-vyLk0tnHw3VtMMgP7b-10" value="" style="shape=partialRectangle;overflow=hidden;connectable=0;fillColor=none;top=0;left=0;bottom=0;right=0;" parent="C-vyLk0tnHw3VtMMgP7b-9" vertex="1">
          <mxGeometry width="30" height="30" as="geometry">
            <mxRectangle width="30" height="30" as="alternateBounds" />
          </mxGeometry>
        </mxCell>
        <mxCell id="C-vyLk0tnHw3VtMMgP7b-11" value="exercises List&lt;Exercise&gt; NOT NULL" style="shape=partialRectangle;overflow=hidden;connectable=0;fillColor=none;top=0;left=0;bottom=0;right=0;align=left;spacingLeft=6;" parent="C-vyLk0tnHw3VtMMgP7b-9" vertex="1">
          <mxGeometry x="30" width="220" height="30" as="geometry">
            <mxRectangle width="220" height="30" as="alternateBounds" />
          </mxGeometry>
        </mxCell>
        <mxCell id="C-vyLk0tnHw3VtMMgP7b-13" value="Meals" style="shape=table;startSize=30;container=1;collapsible=1;childLayout=tableLayout;fixedRows=1;rowLines=0;fontStyle=1;align=center;resizeLast=1;" parent="1" vertex="1">
          <mxGeometry x="741" y="644.01" width="277" height="230.25" as="geometry" />
        </mxCell>
        <mxCell id="C-vyLk0tnHw3VtMMgP7b-14" value="" style="shape=partialRectangle;collapsible=0;dropTarget=0;pointerEvents=0;fillColor=none;points=[[0,0.5],[1,0.5]];portConstraint=eastwest;top=0;left=0;right=0;bottom=1;" parent="C-vyLk0tnHw3VtMMgP7b-13" vertex="1">
          <mxGeometry y="30" width="277" height="30" as="geometry" />
        </mxCell>
        <mxCell id="C-vyLk0tnHw3VtMMgP7b-15" value="PK" style="shape=partialRectangle;overflow=hidden;connectable=0;fillColor=none;top=0;left=0;bottom=0;right=0;fontStyle=1;" parent="C-vyLk0tnHw3VtMMgP7b-14" vertex="1">
          <mxGeometry width="30" height="30" as="geometry">
            <mxRectangle width="30" height="30" as="alternateBounds" />
          </mxGeometry>
        </mxCell>
        <mxCell id="C-vyLk0tnHw3VtMMgP7b-16" value="mealID int NOT NULL " style="shape=partialRectangle;overflow=hidden;connectable=0;fillColor=none;top=0;left=0;bottom=0;right=0;align=left;spacingLeft=6;fontStyle=5;" parent="C-vyLk0tnHw3VtMMgP7b-14" vertex="1">
          <mxGeometry x="30" width="247" height="30" as="geometry">
            <mxRectangle width="247" height="30" as="alternateBounds" />
          </mxGeometry>
        </mxCell>
        <mxCell id="BOl2dM1y0eal6JlmimQa-77" value="" style="shape=tableRow;horizontal=0;startSize=0;swimlaneHead=0;swimlaneBody=0;fillColor=none;collapsible=0;dropTarget=0;points=[[0,0.5],[1,0.5]];portConstraint=eastwest;top=0;left=0;right=0;bottom=0;" parent="C-vyLk0tnHw3VtMMgP7b-13" vertex="1">
          <mxGeometry y="60" width="277" height="30" as="geometry" />
        </mxCell>
        <mxCell id="BOl2dM1y0eal6JlmimQa-78" value="" style="shape=partialRectangle;connectable=0;fillColor=none;top=0;left=0;bottom=0;right=0;editable=1;overflow=hidden;" parent="BOl2dM1y0eal6JlmimQa-77" vertex="1">
          <mxGeometry width="30" height="30" as="geometry">
            <mxRectangle width="30" height="30" as="alternateBounds" />
          </mxGeometry>
        </mxCell>
        <mxCell id="BOl2dM1y0eal6JlmimQa-79" value="name char(50) NOT NULL" style="shape=partialRectangle;connectable=0;fillColor=none;top=0;left=0;bottom=0;right=0;align=left;spacingLeft=6;overflow=hidden;" parent="BOl2dM1y0eal6JlmimQa-77" vertex="1">
          <mxGeometry x="30" width="247" height="30" as="geometry">
            <mxRectangle width="247" height="30" as="alternateBounds" />
          </mxGeometry>
        </mxCell>
        <mxCell id="BOl2dM1y0eal6JlmimQa-80" value="" style="shape=tableRow;horizontal=0;startSize=0;swimlaneHead=0;swimlaneBody=0;fillColor=none;collapsible=0;dropTarget=0;points=[[0,0.5],[1,0.5]];portConstraint=eastwest;top=0;left=0;right=0;bottom=0;" parent="C-vyLk0tnHw3VtMMgP7b-13" vertex="1">
          <mxGeometry y="90" width="277" height="30" as="geometry" />
        </mxCell>
        <mxCell id="BOl2dM1y0eal6JlmimQa-81" value="" style="shape=partialRectangle;connectable=0;fillColor=none;top=0;left=0;bottom=0;right=0;editable=1;overflow=hidden;" parent="BOl2dM1y0eal6JlmimQa-80" vertex="1">
          <mxGeometry width="30" height="30" as="geometry">
            <mxRectangle width="30" height="30" as="alternateBounds" />
          </mxGeometry>
        </mxCell>
        <mxCell id="BOl2dM1y0eal6JlmimQa-82" value="description char(100) NOT NULL" style="shape=partialRectangle;connectable=0;fillColor=none;top=0;left=0;bottom=0;right=0;align=left;spacingLeft=6;overflow=hidden;" parent="BOl2dM1y0eal6JlmimQa-80" vertex="1">
          <mxGeometry x="30" width="247" height="30" as="geometry">
            <mxRectangle width="247" height="30" as="alternateBounds" />
          </mxGeometry>
        </mxCell>
        <mxCell id="BOl2dM1y0eal6JlmimQa-89" value="" style="shape=tableRow;horizontal=0;startSize=0;swimlaneHead=0;swimlaneBody=0;fillColor=none;collapsible=0;dropTarget=0;points=[[0,0.5],[1,0.5]];portConstraint=eastwest;top=0;left=0;right=0;bottom=0;" parent="C-vyLk0tnHw3VtMMgP7b-13" vertex="1">
          <mxGeometry y="120" width="277" height="30" as="geometry" />
        </mxCell>
        <mxCell id="BOl2dM1y0eal6JlmimQa-90" value="" style="shape=partialRectangle;connectable=0;fillColor=none;top=0;left=0;bottom=0;right=0;editable=1;overflow=hidden;" parent="BOl2dM1y0eal6JlmimQa-89" vertex="1">
          <mxGeometry width="30" height="30" as="geometry">
            <mxRectangle width="30" height="30" as="alternateBounds" />
          </mxGeometry>
        </mxCell>
        <mxCell id="BOl2dM1y0eal6JlmimQa-91" value="imgLink char(1000) NOT NULL" style="shape=partialRectangle;connectable=0;fillColor=none;top=0;left=0;bottom=0;right=0;align=left;spacingLeft=6;overflow=hidden;" parent="BOl2dM1y0eal6JlmimQa-89" vertex="1">
          <mxGeometry x="30" width="247" height="30" as="geometry">
            <mxRectangle width="247" height="30" as="alternateBounds" />
          </mxGeometry>
        </mxCell>
        <mxCell id="C-vyLk0tnHw3VtMMgP7b-20" value="" style="shape=partialRectangle;collapsible=0;dropTarget=0;pointerEvents=0;fillColor=none;points=[[0,0.5],[1,0.5]];portConstraint=eastwest;top=0;left=0;right=0;bottom=0;" parent="C-vyLk0tnHw3VtMMgP7b-13" vertex="1">
          <mxGeometry y="150" width="277" height="41" as="geometry" />
        </mxCell>
        <mxCell id="C-vyLk0tnHw3VtMMgP7b-21" value="" style="shape=partialRectangle;overflow=hidden;connectable=0;fillColor=none;top=0;left=0;bottom=0;right=0;" parent="C-vyLk0tnHw3VtMMgP7b-20" vertex="1">
          <mxGeometry width="30" height="41" as="geometry">
            <mxRectangle width="30" height="41" as="alternateBounds" />
          </mxGeometry>
        </mxCell>
        <mxCell id="C-vyLk0tnHw3VtMMgP7b-22" value="ingredients List&lt;Ingredient&gt; NOT NULL" style="shape=partialRectangle;overflow=hidden;connectable=0;fillColor=none;top=0;left=0;bottom=0;right=0;align=left;spacingLeft=6;" parent="C-vyLk0tnHw3VtMMgP7b-20" vertex="1">
          <mxGeometry x="30" width="247" height="41" as="geometry">
            <mxRectangle width="247" height="41" as="alternateBounds" />
          </mxGeometry>
        </mxCell>
        <mxCell id="BOl2dM1y0eal6JlmimQa-74" value="" style="shape=tableRow;horizontal=0;startSize=0;swimlaneHead=0;swimlaneBody=0;fillColor=none;collapsible=0;dropTarget=0;points=[[0,0.5],[1,0.5]];portConstraint=eastwest;top=0;left=0;right=0;bottom=0;" parent="C-vyLk0tnHw3VtMMgP7b-13" vertex="1">
          <mxGeometry y="191" width="277" height="30" as="geometry" />
        </mxCell>
        <mxCell id="BOl2dM1y0eal6JlmimQa-75" value="" style="shape=partialRectangle;connectable=0;fillColor=none;top=0;left=0;bottom=0;right=0;editable=1;overflow=hidden;" parent="BOl2dM1y0eal6JlmimQa-74" vertex="1">
          <mxGeometry width="30" height="30" as="geometry">
            <mxRectangle width="30" height="30" as="alternateBounds" />
          </mxGeometry>
        </mxCell>
        <mxCell id="BOl2dM1y0eal6JlmimQa-76" value="recipe Dictionary&lt;Integer, char(50)&gt;" style="shape=partialRectangle;connectable=0;fillColor=none;top=0;left=0;bottom=0;right=0;align=left;spacingLeft=6;overflow=hidden;" parent="BOl2dM1y0eal6JlmimQa-74" vertex="1">
          <mxGeometry x="30" width="247" height="30" as="geometry">
            <mxRectangle width="247" height="30" as="alternateBounds" />
          </mxGeometry>
        </mxCell>
        <mxCell id="BOl2dM1y0eal6JlmimQa-58" style="edgeStyle=orthogonalEdgeStyle;curved=1;rounded=0;orthogonalLoop=1;jettySize=auto;html=1;entryX=0;entryY=0.5;entryDx=0;entryDy=0;startArrow=ERmany;startFill=0;endArrow=ERmany;endFill=0;" parent="1" source="C-vyLk0tnHw3VtMMgP7b-23" target="BOl2dM1y0eal6JlmimQa-49" edge="1">
          <mxGeometry relative="1" as="geometry" />
        </mxCell>
        <mxCell id="C-vyLk0tnHw3VtMMgP7b-23" value="User" style="shape=table;startSize=30;container=1;collapsible=1;childLayout=tableLayout;fixedRows=1;rowLines=0;fontStyle=1;align=center;resizeLast=1;" parent="1" vertex="1">
          <mxGeometry x="150" y="283" width="250" height="266.75" as="geometry" />
        </mxCell>
        <mxCell id="C-vyLk0tnHw3VtMMgP7b-24" value="" style="shape=partialRectangle;collapsible=0;dropTarget=0;pointerEvents=0;fillColor=none;points=[[0,0.5],[1,0.5]];portConstraint=eastwest;top=0;left=0;right=0;bottom=1;" parent="C-vyLk0tnHw3VtMMgP7b-23" vertex="1">
          <mxGeometry y="30" width="250" height="30" as="geometry" />
        </mxCell>
        <mxCell id="C-vyLk0tnHw3VtMMgP7b-25" value="PK" style="shape=partialRectangle;overflow=hidden;connectable=0;fillColor=none;top=0;left=0;bottom=0;right=0;fontStyle=1;" parent="C-vyLk0tnHw3VtMMgP7b-24" vertex="1">
          <mxGeometry width="30" height="30" as="geometry">
            <mxRectangle width="30" height="30" as="alternateBounds" />
          </mxGeometry>
        </mxCell>
        <mxCell id="C-vyLk0tnHw3VtMMgP7b-26" value="userID int NOT NULL " style="shape=partialRectangle;overflow=hidden;connectable=0;fillColor=none;top=0;left=0;bottom=0;right=0;align=left;spacingLeft=6;fontStyle=5;" parent="C-vyLk0tnHw3VtMMgP7b-24" vertex="1">
          <mxGeometry x="30" width="220" height="30" as="geometry">
            <mxRectangle width="220" height="30" as="alternateBounds" />
          </mxGeometry>
        </mxCell>
        <mxCell id="C-vyLk0tnHw3VtMMgP7b-27" value="" style="shape=partialRectangle;collapsible=0;dropTarget=0;pointerEvents=0;fillColor=none;points=[[0,0.5],[1,0.5]];portConstraint=eastwest;top=0;left=0;right=0;bottom=0;" parent="C-vyLk0tnHw3VtMMgP7b-23" vertex="1">
          <mxGeometry y="60" width="250" height="206" as="geometry" />
        </mxCell>
        <mxCell id="C-vyLk0tnHw3VtMMgP7b-28" value="" style="shape=partialRectangle;overflow=hidden;connectable=0;fillColor=none;top=0;left=0;bottom=0;right=0;" parent="C-vyLk0tnHw3VtMMgP7b-27" vertex="1">
          <mxGeometry width="30" height="206" as="geometry">
            <mxRectangle width="30" height="206" as="alternateBounds" />
          </mxGeometry>
        </mxCell>
        <mxCell id="C-vyLk0tnHw3VtMMgP7b-29" value="username char(50) NOT NULL&#xa;&#xa;age int NOT NULL&#xa;&#xa;weight int NOT NULL&#xa;&#xa;height int NOT NULL" style="shape=partialRectangle;overflow=hidden;connectable=0;fillColor=none;top=0;left=0;bottom=0;right=0;align=left;spacingLeft=6;" parent="C-vyLk0tnHw3VtMMgP7b-27" vertex="1">
          <mxGeometry x="30" width="220" height="206" as="geometry">
            <mxRectangle width="220" height="206" as="alternateBounds" />
          </mxGeometry>
        </mxCell>
        <mxCell id="BOl2dM1y0eal6JlmimQa-44" style="edgeStyle=orthogonalEdgeStyle;curved=1;rounded=0;orthogonalLoop=1;jettySize=auto;html=1;exitX=0.5;exitY=0;exitDx=0;exitDy=0;entryX=0.5;entryY=1;entryDx=0;entryDy=0;startArrow=ERmany;startFill=0;endArrow=ERmany;endFill=0;" parent="1" source="hBt-hoAf4DUXNsVYwWVi-3" target="BOl2dM1y0eal6JlmimQa-30" edge="1">
          <mxGeometry relative="1" as="geometry" />
        </mxCell>
        <mxCell id="hBt-hoAf4DUXNsVYwWVi-3" value="Exercise" style="shape=table;startSize=30;container=1;collapsible=1;childLayout=tableLayout;fixedRows=1;rowLines=0;fontStyle=1;align=center;resizeLast=1;" parent="1" vertex="1">
          <mxGeometry x="1098" y="286" width="253" height="240" as="geometry" />
        </mxCell>
        <mxCell id="hBt-hoAf4DUXNsVYwWVi-4" value="" style="shape=tableRow;horizontal=0;startSize=0;swimlaneHead=0;swimlaneBody=0;fillColor=none;collapsible=0;dropTarget=0;points=[[0,0.5],[1,0.5]];portConstraint=eastwest;top=0;left=0;right=0;bottom=1;" parent="hBt-hoAf4DUXNsVYwWVi-3" vertex="1">
          <mxGeometry y="30" width="253" height="30" as="geometry" />
        </mxCell>
        <mxCell id="hBt-hoAf4DUXNsVYwWVi-5" value="PK" style="shape=partialRectangle;connectable=0;fillColor=none;top=0;left=0;bottom=0;right=0;fontStyle=1;overflow=hidden;" parent="hBt-hoAf4DUXNsVYwWVi-4" vertex="1">
          <mxGeometry width="30" height="30" as="geometry">
            <mxRectangle width="30" height="30" as="alternateBounds" />
          </mxGeometry>
        </mxCell>
        <mxCell id="hBt-hoAf4DUXNsVYwWVi-6" value="exerciseID int NOT NULL" style="shape=partialRectangle;connectable=0;fillColor=none;top=0;left=0;bottom=0;right=0;align=left;spacingLeft=6;fontStyle=5;overflow=hidden;" parent="hBt-hoAf4DUXNsVYwWVi-4" vertex="1">
          <mxGeometry x="30" width="223" height="30" as="geometry">
            <mxRectangle width="223" height="30" as="alternateBounds" />
          </mxGeometry>
        </mxCell>
        <mxCell id="hBt-hoAf4DUXNsVYwWVi-7" value="" style="shape=tableRow;horizontal=0;startSize=0;swimlaneHead=0;swimlaneBody=0;fillColor=none;collapsible=0;dropTarget=0;points=[[0,0.5],[1,0.5]];portConstraint=eastwest;top=0;left=0;right=0;bottom=0;" parent="hBt-hoAf4DUXNsVYwWVi-3" vertex="1">
          <mxGeometry y="60" width="253" height="30" as="geometry" />
        </mxCell>
        <mxCell id="hBt-hoAf4DUXNsVYwWVi-8" value="" style="shape=partialRectangle;connectable=0;fillColor=none;top=0;left=0;bottom=0;right=0;editable=1;overflow=hidden;" parent="hBt-hoAf4DUXNsVYwWVi-7" vertex="1">
          <mxGeometry width="30" height="30" as="geometry">
            <mxRectangle width="30" height="30" as="alternateBounds" />
          </mxGeometry>
        </mxCell>
        <mxCell id="hBt-hoAf4DUXNsVYwWVi-9" value="name char(50) NOT NULL" style="shape=partialRectangle;connectable=0;fillColor=none;top=0;left=0;bottom=0;right=0;align=left;spacingLeft=6;overflow=hidden;" parent="hBt-hoAf4DUXNsVYwWVi-7" vertex="1">
          <mxGeometry x="30" width="223" height="30" as="geometry">
            <mxRectangle width="223" height="30" as="alternateBounds" />
          </mxGeometry>
        </mxCell>
        <mxCell id="hBt-hoAf4DUXNsVYwWVi-10" value="" style="shape=tableRow;horizontal=0;startSize=0;swimlaneHead=0;swimlaneBody=0;fillColor=none;collapsible=0;dropTarget=0;points=[[0,0.5],[1,0.5]];portConstraint=eastwest;top=0;left=0;right=0;bottom=0;" parent="hBt-hoAf4DUXNsVYwWVi-3" vertex="1">
          <mxGeometry y="90" width="253" height="30" as="geometry" />
        </mxCell>
        <mxCell id="hBt-hoAf4DUXNsVYwWVi-11" value="" style="shape=partialRectangle;connectable=0;fillColor=none;top=0;left=0;bottom=0;right=0;editable=1;overflow=hidden;" parent="hBt-hoAf4DUXNsVYwWVi-10" vertex="1">
          <mxGeometry width="30" height="30" as="geometry">
            <mxRectangle width="30" height="30" as="alternateBounds" />
          </mxGeometry>
        </mxCell>
        <mxCell id="hBt-hoAf4DUXNsVYwWVi-12" value="targetMuscle char(50) NOT NULL" style="shape=partialRectangle;connectable=0;fillColor=none;top=0;left=0;bottom=0;right=0;align=left;spacingLeft=6;overflow=hidden;" parent="hBt-hoAf4DUXNsVYwWVi-10" vertex="1">
          <mxGeometry x="30" width="223" height="30" as="geometry">
            <mxRectangle width="223" height="30" as="alternateBounds" />
          </mxGeometry>
        </mxCell>
        <mxCell id="hBt-hoAf4DUXNsVYwWVi-13" value="" style="shape=tableRow;horizontal=0;startSize=0;swimlaneHead=0;swimlaneBody=0;fillColor=none;collapsible=0;dropTarget=0;points=[[0,0.5],[1,0.5]];portConstraint=eastwest;top=0;left=0;right=0;bottom=0;" parent="hBt-hoAf4DUXNsVYwWVi-3" vertex="1">
          <mxGeometry y="120" width="253" height="30" as="geometry" />
        </mxCell>
        <mxCell id="hBt-hoAf4DUXNsVYwWVi-14" value="" style="shape=partialRectangle;connectable=0;fillColor=none;top=0;left=0;bottom=0;right=0;editable=1;overflow=hidden;" parent="hBt-hoAf4DUXNsVYwWVi-13" vertex="1">
          <mxGeometry width="30" height="30" as="geometry">
            <mxRectangle width="30" height="30" as="alternateBounds" />
          </mxGeometry>
        </mxCell>
        <mxCell id="hBt-hoAf4DUXNsVYwWVi-15" value="video char(50) NULL" style="shape=partialRectangle;connectable=0;fillColor=none;top=0;left=0;bottom=0;right=0;align=left;spacingLeft=6;overflow=hidden;" parent="hBt-hoAf4DUXNsVYwWVi-13" vertex="1">
          <mxGeometry x="30" width="223" height="30" as="geometry">
            <mxRectangle width="223" height="30" as="alternateBounds" />
          </mxGeometry>
        </mxCell>
        <mxCell id="hBt-hoAf4DUXNsVYwWVi-16" value="" style="shape=tableRow;horizontal=0;startSize=0;swimlaneHead=0;swimlaneBody=0;fillColor=none;collapsible=0;dropTarget=0;points=[[0,0.5],[1,0.5]];portConstraint=eastwest;top=0;left=0;right=0;bottom=0;" parent="hBt-hoAf4DUXNsVYwWVi-3" vertex="1">
          <mxGeometry y="150" width="253" height="30" as="geometry" />
        </mxCell>
        <mxCell id="hBt-hoAf4DUXNsVYwWVi-17" value="" style="shape=partialRectangle;connectable=0;fillColor=none;top=0;left=0;bottom=0;right=0;editable=1;overflow=hidden;" parent="hBt-hoAf4DUXNsVYwWVi-16" vertex="1">
          <mxGeometry width="30" height="30" as="geometry">
            <mxRectangle width="30" height="30" as="alternateBounds" />
          </mxGeometry>
        </mxCell>
        <mxCell id="hBt-hoAf4DUXNsVYwWVi-18" value="setAmt int NOT NULL" style="shape=partialRectangle;connectable=0;fillColor=none;top=0;left=0;bottom=0;right=0;align=left;spacingLeft=6;overflow=hidden;" parent="hBt-hoAf4DUXNsVYwWVi-16" vertex="1">
          <mxGeometry x="30" width="223" height="30" as="geometry">
            <mxRectangle width="223" height="30" as="alternateBounds" />
          </mxGeometry>
        </mxCell>
        <mxCell id="hBt-hoAf4DUXNsVYwWVi-19" value="" style="shape=tableRow;horizontal=0;startSize=0;swimlaneHead=0;swimlaneBody=0;fillColor=none;collapsible=0;dropTarget=0;points=[[0,0.5],[1,0.5]];portConstraint=eastwest;top=0;left=0;right=0;bottom=0;" parent="hBt-hoAf4DUXNsVYwWVi-3" vertex="1">
          <mxGeometry y="180" width="253" height="30" as="geometry" />
        </mxCell>
        <mxCell id="hBt-hoAf4DUXNsVYwWVi-20" value="" style="shape=partialRectangle;connectable=0;fillColor=none;top=0;left=0;bottom=0;right=0;editable=1;overflow=hidden;" parent="hBt-hoAf4DUXNsVYwWVi-19" vertex="1">
          <mxGeometry width="30" height="30" as="geometry">
            <mxRectangle width="30" height="30" as="alternateBounds" />
          </mxGeometry>
        </mxCell>
        <mxCell id="hBt-hoAf4DUXNsVYwWVi-21" value="repAmt int NOT NULL" style="shape=partialRectangle;connectable=0;fillColor=none;top=0;left=0;bottom=0;right=0;align=left;spacingLeft=6;overflow=hidden;" parent="hBt-hoAf4DUXNsVYwWVi-19" vertex="1">
          <mxGeometry x="30" width="223" height="30" as="geometry">
            <mxRectangle width="223" height="30" as="alternateBounds" />
          </mxGeometry>
        </mxCell>
        <mxCell id="hBt-hoAf4DUXNsVYwWVi-22" value="" style="shape=tableRow;horizontal=0;startSize=0;swimlaneHead=0;swimlaneBody=0;fillColor=none;collapsible=0;dropTarget=0;points=[[0,0.5],[1,0.5]];portConstraint=eastwest;top=0;left=0;right=0;bottom=0;" parent="hBt-hoAf4DUXNsVYwWVi-3" vertex="1">
          <mxGeometry y="210" width="253" height="30" as="geometry" />
        </mxCell>
        <mxCell id="hBt-hoAf4DUXNsVYwWVi-23" value="" style="shape=partialRectangle;connectable=0;fillColor=none;top=0;left=0;bottom=0;right=0;editable=1;overflow=hidden;" parent="hBt-hoAf4DUXNsVYwWVi-22" vertex="1">
          <mxGeometry width="30" height="30" as="geometry">
            <mxRectangle width="30" height="30" as="alternateBounds" />
          </mxGeometry>
        </mxCell>
        <mxCell id="hBt-hoAf4DUXNsVYwWVi-24" value="description char(100) NULL" style="shape=partialRectangle;connectable=0;fillColor=none;top=0;left=0;bottom=0;right=0;align=left;spacingLeft=6;overflow=hidden;" parent="hBt-hoAf4DUXNsVYwWVi-22" vertex="1">
          <mxGeometry x="30" width="223" height="30" as="geometry">
            <mxRectangle width="223" height="30" as="alternateBounds" />
          </mxGeometry>
        </mxCell>
        <mxCell id="BOl2dM1y0eal6JlmimQa-14" value="userWorkouts" style="shape=table;startSize=30;container=1;collapsible=1;childLayout=tableLayout;fixedRows=1;rowLines=0;fontStyle=1;align=center;resizeLast=1;" parent="1" vertex="1">
          <mxGeometry x="357" y="68" width="283" height="120" as="geometry" />
        </mxCell>
        <mxCell id="BOl2dM1y0eal6JlmimQa-15" value="" style="shape=tableRow;horizontal=0;startSize=0;swimlaneHead=0;swimlaneBody=0;fillColor=none;collapsible=0;dropTarget=0;points=[[0,0.5],[1,0.5]];portConstraint=eastwest;top=0;left=0;right=0;bottom=1;" parent="BOl2dM1y0eal6JlmimQa-14" vertex="1">
          <mxGeometry y="30" width="283" height="30" as="geometry" />
        </mxCell>
        <mxCell id="BOl2dM1y0eal6JlmimQa-16" value="PK" style="shape=partialRectangle;connectable=0;fillColor=none;top=0;left=0;bottom=0;right=0;fontStyle=1;overflow=hidden;" parent="BOl2dM1y0eal6JlmimQa-15" vertex="1">
          <mxGeometry width="30" height="30" as="geometry">
            <mxRectangle width="30" height="30" as="alternateBounds" />
          </mxGeometry>
        </mxCell>
        <mxCell id="BOl2dM1y0eal6JlmimQa-17" value="userWorkoutID int NOT NULL" style="shape=partialRectangle;connectable=0;fillColor=none;top=0;left=0;bottom=0;right=0;align=left;spacingLeft=6;fontStyle=5;overflow=hidden;" parent="BOl2dM1y0eal6JlmimQa-15" vertex="1">
          <mxGeometry x="30" width="253" height="30" as="geometry">
            <mxRectangle width="253" height="30" as="alternateBounds" />
          </mxGeometry>
        </mxCell>
        <mxCell id="BOl2dM1y0eal6JlmimQa-18" value="" style="shape=tableRow;horizontal=0;startSize=0;swimlaneHead=0;swimlaneBody=0;fillColor=none;collapsible=0;dropTarget=0;points=[[0,0.5],[1,0.5]];portConstraint=eastwest;top=0;left=0;right=0;bottom=0;" parent="BOl2dM1y0eal6JlmimQa-14" vertex="1">
          <mxGeometry y="60" width="283" height="30" as="geometry" />
        </mxCell>
        <mxCell id="BOl2dM1y0eal6JlmimQa-19" value="FK1" style="shape=partialRectangle;connectable=0;fillColor=none;top=0;left=0;bottom=0;right=0;editable=1;overflow=hidden;" parent="BOl2dM1y0eal6JlmimQa-18" vertex="1">
          <mxGeometry width="30" height="30" as="geometry">
            <mxRectangle width="30" height="30" as="alternateBounds" />
          </mxGeometry>
        </mxCell>
        <mxCell id="BOl2dM1y0eal6JlmimQa-20" value="userID int NOT NULL" style="shape=partialRectangle;connectable=0;fillColor=none;top=0;left=0;bottom=0;right=0;align=left;spacingLeft=6;overflow=hidden;" parent="BOl2dM1y0eal6JlmimQa-18" vertex="1">
          <mxGeometry x="30" width="253" height="30" as="geometry">
            <mxRectangle width="253" height="30" as="alternateBounds" />
          </mxGeometry>
        </mxCell>
        <mxCell id="BOl2dM1y0eal6JlmimQa-21" value="" style="shape=tableRow;horizontal=0;startSize=0;swimlaneHead=0;swimlaneBody=0;fillColor=none;collapsible=0;dropTarget=0;points=[[0,0.5],[1,0.5]];portConstraint=eastwest;top=0;left=0;right=0;bottom=0;" parent="BOl2dM1y0eal6JlmimQa-14" vertex="1">
          <mxGeometry y="90" width="283" height="30" as="geometry" />
        </mxCell>
        <mxCell id="BOl2dM1y0eal6JlmimQa-22" value="FK2" style="shape=partialRectangle;connectable=0;fillColor=none;top=0;left=0;bottom=0;right=0;editable=1;overflow=hidden;" parent="BOl2dM1y0eal6JlmimQa-21" vertex="1">
          <mxGeometry width="30" height="30" as="geometry">
            <mxRectangle width="30" height="30" as="alternateBounds" />
          </mxGeometry>
        </mxCell>
        <mxCell id="BOl2dM1y0eal6JlmimQa-23" value="workoutID int NOT NULL" style="shape=partialRectangle;connectable=0;fillColor=none;top=0;left=0;bottom=0;right=0;align=left;spacingLeft=6;overflow=hidden;" parent="BOl2dM1y0eal6JlmimQa-21" vertex="1">
          <mxGeometry x="30" width="253" height="30" as="geometry">
            <mxRectangle width="253" height="30" as="alternateBounds" />
          </mxGeometry>
        </mxCell>
        <mxCell id="BOl2dM1y0eal6JlmimQa-28" style="edgeStyle=orthogonalEdgeStyle;rounded=0;orthogonalLoop=1;jettySize=auto;html=1;entryX=0;entryY=0.5;entryDx=0;entryDy=0;endArrow=ERmany;endFill=0;startArrow=ERmany;startFill=0;" parent="1" source="BOl2dM1y0eal6JlmimQa-18" target="C-vyLk0tnHw3VtMMgP7b-2" edge="1">
          <mxGeometry relative="1" as="geometry" />
        </mxCell>
        <mxCell id="BOl2dM1y0eal6JlmimQa-30" value="workoutExercises" style="shape=table;startSize=30;container=1;collapsible=1;childLayout=tableLayout;fixedRows=1;rowLines=0;fontStyle=1;align=center;resizeLast=1;" parent="1" vertex="1">
          <mxGeometry x="1096" y="60.49" width="255" height="127.50981588924645" as="geometry" />
        </mxCell>
        <mxCell id="BOl2dM1y0eal6JlmimQa-31" value="" style="shape=tableRow;horizontal=0;startSize=0;swimlaneHead=0;swimlaneBody=0;fillColor=none;collapsible=0;dropTarget=0;points=[[0,0.5],[1,0.5]];portConstraint=eastwest;top=0;left=0;right=0;bottom=1;" parent="BOl2dM1y0eal6JlmimQa-30" vertex="1">
          <mxGeometry y="30" width="255" height="30" as="geometry" />
        </mxCell>
        <mxCell id="BOl2dM1y0eal6JlmimQa-32" value="PK" style="shape=partialRectangle;connectable=0;fillColor=none;top=0;left=0;bottom=0;right=0;fontStyle=1;overflow=hidden;" parent="BOl2dM1y0eal6JlmimQa-31" vertex="1">
          <mxGeometry width="30" height="30" as="geometry">
            <mxRectangle width="30" height="30" as="alternateBounds" />
          </mxGeometry>
        </mxCell>
        <mxCell id="BOl2dM1y0eal6JlmimQa-33" value="workoutExerciseID int NOT NULL" style="shape=partialRectangle;connectable=0;fillColor=none;top=0;left=0;bottom=0;right=0;align=left;spacingLeft=6;fontStyle=5;overflow=hidden;" parent="BOl2dM1y0eal6JlmimQa-31" vertex="1">
          <mxGeometry x="30" width="225" height="30" as="geometry">
            <mxRectangle width="225" height="30" as="alternateBounds" />
          </mxGeometry>
        </mxCell>
        <mxCell id="BOl2dM1y0eal6JlmimQa-34" value="" style="shape=tableRow;horizontal=0;startSize=0;swimlaneHead=0;swimlaneBody=0;fillColor=none;collapsible=0;dropTarget=0;points=[[0,0.5],[1,0.5]];portConstraint=eastwest;top=0;left=0;right=0;bottom=0;" parent="BOl2dM1y0eal6JlmimQa-30" vertex="1">
          <mxGeometry y="60" width="255" height="30" as="geometry" />
        </mxCell>
        <mxCell id="BOl2dM1y0eal6JlmimQa-35" value="FK1" style="shape=partialRectangle;connectable=0;fillColor=none;top=0;left=0;bottom=0;right=0;editable=1;overflow=hidden;" parent="BOl2dM1y0eal6JlmimQa-34" vertex="1">
          <mxGeometry width="30" height="30" as="geometry">
            <mxRectangle width="30" height="30" as="alternateBounds" />
          </mxGeometry>
        </mxCell>
        <mxCell id="BOl2dM1y0eal6JlmimQa-36" value="workoutID int NOT NULL" style="shape=partialRectangle;connectable=0;fillColor=none;top=0;left=0;bottom=0;right=0;align=left;spacingLeft=6;overflow=hidden;" parent="BOl2dM1y0eal6JlmimQa-34" vertex="1">
          <mxGeometry x="30" width="225" height="30" as="geometry">
            <mxRectangle width="225" height="30" as="alternateBounds" />
          </mxGeometry>
        </mxCell>
        <mxCell id="BOl2dM1y0eal6JlmimQa-37" value="" style="shape=tableRow;horizontal=0;startSize=0;swimlaneHead=0;swimlaneBody=0;fillColor=none;collapsible=0;dropTarget=0;points=[[0,0.5],[1,0.5]];portConstraint=eastwest;top=0;left=0;right=0;bottom=0;" parent="BOl2dM1y0eal6JlmimQa-30" vertex="1">
          <mxGeometry y="90" width="255" height="28" as="geometry" />
        </mxCell>
        <mxCell id="BOl2dM1y0eal6JlmimQa-38" value="FK2" style="shape=partialRectangle;connectable=0;fillColor=none;top=0;left=0;bottom=0;right=0;editable=1;overflow=hidden;" parent="BOl2dM1y0eal6JlmimQa-37" vertex="1">
          <mxGeometry width="30" height="28" as="geometry">
            <mxRectangle width="30" height="28" as="alternateBounds" />
          </mxGeometry>
        </mxCell>
        <mxCell id="BOl2dM1y0eal6JlmimQa-39" value="exerciseID int NOT NULL" style="shape=partialRectangle;connectable=0;fillColor=none;top=0;left=0;bottom=0;right=0;align=left;spacingLeft=6;overflow=hidden;" parent="BOl2dM1y0eal6JlmimQa-37" vertex="1">
          <mxGeometry x="30" width="225" height="28" as="geometry">
            <mxRectangle width="225" height="28" as="alternateBounds" />
          </mxGeometry>
        </mxCell>
        <mxCell id="BOl2dM1y0eal6JlmimQa-43" style="edgeStyle=orthogonalEdgeStyle;curved=1;rounded=0;orthogonalLoop=1;jettySize=auto;html=1;exitX=0.999;exitY=0.06;exitDx=0;exitDy=0;entryX=0;entryY=0.5;entryDx=0;entryDy=0;startArrow=ERmany;startFill=0;endArrow=ERmany;endFill=0;exitPerimeter=0;" parent="1" source="C-vyLk0tnHw3VtMMgP7b-6" target="BOl2dM1y0eal6JlmimQa-34" edge="1">
          <mxGeometry relative="1" as="geometry" />
        </mxCell>
        <mxCell id="BOl2dM1y0eal6JlmimQa-45" value="UserMeals" style="shape=table;startSize=30;container=1;collapsible=1;childLayout=tableLayout;fixedRows=1;rowLines=0;fontStyle=1;align=center;resizeLast=1;" parent="1" vertex="1">
          <mxGeometry x="362" y="644.01" width="225.39220473345608" height="130" as="geometry" />
        </mxCell>
        <mxCell id="BOl2dM1y0eal6JlmimQa-46" value="" style="shape=tableRow;horizontal=0;startSize=0;swimlaneHead=0;swimlaneBody=0;fillColor=none;collapsible=0;dropTarget=0;points=[[0,0.5],[1,0.5]];portConstraint=eastwest;top=0;left=0;right=0;bottom=1;" parent="BOl2dM1y0eal6JlmimQa-45" vertex="1">
          <mxGeometry y="30" width="225.39220473345608" height="30" as="geometry" />
        </mxCell>
        <mxCell id="BOl2dM1y0eal6JlmimQa-47" value="PK" style="shape=partialRectangle;connectable=0;fillColor=none;top=0;left=0;bottom=0;right=0;fontStyle=1;overflow=hidden;" parent="BOl2dM1y0eal6JlmimQa-46" vertex="1">
          <mxGeometry width="30" height="30" as="geometry">
            <mxRectangle width="30" height="30" as="alternateBounds" />
          </mxGeometry>
        </mxCell>
        <mxCell id="BOl2dM1y0eal6JlmimQa-48" value="userMealID int NOT NULL" style="shape=partialRectangle;connectable=0;fillColor=none;top=0;left=0;bottom=0;right=0;align=left;spacingLeft=6;fontStyle=5;overflow=hidden;" parent="BOl2dM1y0eal6JlmimQa-46" vertex="1">
          <mxGeometry x="30" width="195.39220473345608" height="30" as="geometry">
            <mxRectangle width="195.39220473345608" height="30" as="alternateBounds" />
          </mxGeometry>
        </mxCell>
        <mxCell id="BOl2dM1y0eal6JlmimQa-49" value="" style="shape=tableRow;horizontal=0;startSize=0;swimlaneHead=0;swimlaneBody=0;fillColor=none;collapsible=0;dropTarget=0;points=[[0,0.5],[1,0.5]];portConstraint=eastwest;top=0;left=0;right=0;bottom=0;" parent="BOl2dM1y0eal6JlmimQa-45" vertex="1">
          <mxGeometry y="60" width="225.39220473345608" height="30" as="geometry" />
        </mxCell>
        <mxCell id="BOl2dM1y0eal6JlmimQa-50" value="FK1" style="shape=partialRectangle;connectable=0;fillColor=none;top=0;left=0;bottom=0;right=0;editable=1;overflow=hidden;" parent="BOl2dM1y0eal6JlmimQa-49" vertex="1">
          <mxGeometry width="30" height="30" as="geometry">
            <mxRectangle width="30" height="30" as="alternateBounds" />
          </mxGeometry>
        </mxCell>
        <mxCell id="BOl2dM1y0eal6JlmimQa-51" value="userID int NOT NULL" style="shape=partialRectangle;connectable=0;fillColor=none;top=0;left=0;bottom=0;right=0;align=left;spacingLeft=6;overflow=hidden;" parent="BOl2dM1y0eal6JlmimQa-49" vertex="1">
          <mxGeometry x="30" width="195.39220473345608" height="30" as="geometry">
            <mxRectangle width="195.39220473345608" height="30" as="alternateBounds" />
          </mxGeometry>
        </mxCell>
        <mxCell id="BOl2dM1y0eal6JlmimQa-52" value="" style="shape=tableRow;horizontal=0;startSize=0;swimlaneHead=0;swimlaneBody=0;fillColor=none;collapsible=0;dropTarget=0;points=[[0,0.5],[1,0.5]];portConstraint=eastwest;top=0;left=0;right=0;bottom=0;" parent="BOl2dM1y0eal6JlmimQa-45" vertex="1">
          <mxGeometry y="90" width="225.39220473345608" height="30" as="geometry" />
        </mxCell>
        <mxCell id="BOl2dM1y0eal6JlmimQa-53" value="FK2" style="shape=partialRectangle;connectable=0;fillColor=none;top=0;left=0;bottom=0;right=0;editable=1;overflow=hidden;" parent="BOl2dM1y0eal6JlmimQa-52" vertex="1">
          <mxGeometry width="30" height="30" as="geometry">
            <mxRectangle width="30" height="30" as="alternateBounds" />
          </mxGeometry>
        </mxCell>
        <mxCell id="BOl2dM1y0eal6JlmimQa-54" value="mealID int NOT NULL" style="shape=partialRectangle;connectable=0;fillColor=none;top=0;left=0;bottom=0;right=0;align=left;spacingLeft=6;overflow=hidden;" parent="BOl2dM1y0eal6JlmimQa-52" vertex="1">
          <mxGeometry x="30" width="195.39220473345608" height="30" as="geometry">
            <mxRectangle width="195.39220473345608" height="30" as="alternateBounds" />
          </mxGeometry>
        </mxCell>
        <mxCell id="BOl2dM1y0eal6JlmimQa-59" style="edgeStyle=orthogonalEdgeStyle;curved=1;rounded=0;orthogonalLoop=1;jettySize=auto;html=1;entryX=0;entryY=0.5;entryDx=0;entryDy=0;startArrow=ERmany;startFill=0;endArrow=ERmany;endFill=0;" parent="1" source="BOl2dM1y0eal6JlmimQa-49" target="BOl2dM1y0eal6JlmimQa-77" edge="1">
          <mxGeometry relative="1" as="geometry">
            <mxPoint x="741" y="810.01" as="targetPoint" />
          </mxGeometry>
        </mxCell>
        <mxCell id="BOl2dM1y0eal6JlmimQa-60" value="Ingredient" style="shape=table;startSize=30;container=1;collapsible=1;childLayout=tableLayout;fixedRows=1;rowLines=0;fontStyle=1;align=center;resizeLast=1;" parent="1" vertex="1">
          <mxGeometry x="1101.79" y="908" width="237.0882352941178" height="160" as="geometry" />
        </mxCell>
        <mxCell id="BOl2dM1y0eal6JlmimQa-61" value="" style="shape=tableRow;horizontal=0;startSize=0;swimlaneHead=0;swimlaneBody=0;fillColor=none;collapsible=0;dropTarget=0;points=[[0,0.5],[1,0.5]];portConstraint=eastwest;top=0;left=0;right=0;bottom=1;" parent="BOl2dM1y0eal6JlmimQa-60" vertex="1">
          <mxGeometry y="30" width="237.0882352941178" height="30" as="geometry" />
        </mxCell>
        <mxCell id="BOl2dM1y0eal6JlmimQa-62" value="PK" style="shape=partialRectangle;connectable=0;fillColor=none;top=0;left=0;bottom=0;right=0;fontStyle=1;overflow=hidden;" parent="BOl2dM1y0eal6JlmimQa-61" vertex="1">
          <mxGeometry width="30" height="30" as="geometry">
            <mxRectangle width="30" height="30" as="alternateBounds" />
          </mxGeometry>
        </mxCell>
        <mxCell id="BOl2dM1y0eal6JlmimQa-63" value="ingredientID int NOT NULL" style="shape=partialRectangle;connectable=0;fillColor=none;top=0;left=0;bottom=0;right=0;align=left;spacingLeft=6;fontStyle=5;overflow=hidden;" parent="BOl2dM1y0eal6JlmimQa-61" vertex="1">
          <mxGeometry x="30" width="207.0882352941178" height="30" as="geometry">
            <mxRectangle width="207.0882352941178" height="30" as="alternateBounds" />
          </mxGeometry>
        </mxCell>
        <mxCell id="BOl2dM1y0eal6JlmimQa-64" value="" style="shape=tableRow;horizontal=0;startSize=0;swimlaneHead=0;swimlaneBody=0;fillColor=none;collapsible=0;dropTarget=0;points=[[0,0.5],[1,0.5]];portConstraint=eastwest;top=0;left=0;right=0;bottom=0;" parent="BOl2dM1y0eal6JlmimQa-60" vertex="1">
          <mxGeometry y="60" width="237.0882352941178" height="30" as="geometry" />
        </mxCell>
        <mxCell id="BOl2dM1y0eal6JlmimQa-65" value="" style="shape=partialRectangle;connectable=0;fillColor=none;top=0;left=0;bottom=0;right=0;editable=1;overflow=hidden;" parent="BOl2dM1y0eal6JlmimQa-64" vertex="1">
          <mxGeometry width="30" height="30" as="geometry">
            <mxRectangle width="30" height="30" as="alternateBounds" />
          </mxGeometry>
        </mxCell>
        <mxCell id="BOl2dM1y0eal6JlmimQa-66" value="name char(50) NOT NULL" style="shape=partialRectangle;connectable=0;fillColor=none;top=0;left=0;bottom=0;right=0;align=left;spacingLeft=6;overflow=hidden;" parent="BOl2dM1y0eal6JlmimQa-64" vertex="1">
          <mxGeometry x="30" width="207.0882352941178" height="30" as="geometry">
            <mxRectangle width="207.0882352941178" height="30" as="alternateBounds" />
          </mxGeometry>
        </mxCell>
        <mxCell id="BOl2dM1y0eal6JlmimQa-67" value="" style="shape=tableRow;horizontal=0;startSize=0;swimlaneHead=0;swimlaneBody=0;fillColor=none;collapsible=0;dropTarget=0;points=[[0,0.5],[1,0.5]];portConstraint=eastwest;top=0;left=0;right=0;bottom=0;" parent="BOl2dM1y0eal6JlmimQa-60" vertex="1">
          <mxGeometry y="90" width="237.0882352941178" height="30" as="geometry" />
        </mxCell>
        <mxCell id="BOl2dM1y0eal6JlmimQa-68" value="" style="shape=partialRectangle;connectable=0;fillColor=none;top=0;left=0;bottom=0;right=0;editable=1;overflow=hidden;" parent="BOl2dM1y0eal6JlmimQa-67" vertex="1">
          <mxGeometry width="30" height="30" as="geometry">
            <mxRectangle width="30" height="30" as="alternateBounds" />
          </mxGeometry>
        </mxCell>
        <mxCell id="BOl2dM1y0eal6JlmimQa-69" value="qty int NOT NULL" style="shape=partialRectangle;connectable=0;fillColor=none;top=0;left=0;bottom=0;right=0;align=left;spacingLeft=6;overflow=hidden;" parent="BOl2dM1y0eal6JlmimQa-67" vertex="1">
          <mxGeometry x="30" width="207.0882352941178" height="30" as="geometry">
            <mxRectangle width="207.0882352941178" height="30" as="alternateBounds" />
          </mxGeometry>
        </mxCell>
        <mxCell id="BOl2dM1y0eal6JlmimQa-70" value="" style="shape=tableRow;horizontal=0;startSize=0;swimlaneHead=0;swimlaneBody=0;fillColor=none;collapsible=0;dropTarget=0;points=[[0,0.5],[1,0.5]];portConstraint=eastwest;top=0;left=0;right=0;bottom=0;" parent="BOl2dM1y0eal6JlmimQa-60" vertex="1">
          <mxGeometry y="120" width="237.0882352941178" height="30" as="geometry" />
        </mxCell>
        <mxCell id="BOl2dM1y0eal6JlmimQa-71" value="" style="shape=partialRectangle;connectable=0;fillColor=none;top=0;left=0;bottom=0;right=0;editable=1;overflow=hidden;" parent="BOl2dM1y0eal6JlmimQa-70" vertex="1">
          <mxGeometry width="30" height="30" as="geometry">
            <mxRectangle width="30" height="30" as="alternateBounds" />
          </mxGeometry>
        </mxCell>
        <mxCell id="BOl2dM1y0eal6JlmimQa-72" value="measurement char(50) NOT NULL" style="shape=partialRectangle;connectable=0;fillColor=none;top=0;left=0;bottom=0;right=0;align=left;spacingLeft=6;overflow=hidden;" parent="BOl2dM1y0eal6JlmimQa-70" vertex="1">
          <mxGeometry x="30" width="207.0882352941178" height="30" as="geometry">
            <mxRectangle width="207.0882352941178" height="30" as="alternateBounds" />
          </mxGeometry>
        </mxCell>
        <mxCell id="BOl2dM1y0eal6JlmimQa-92" style="edgeStyle=orthogonalEdgeStyle;curved=1;rounded=0;orthogonalLoop=1;jettySize=auto;html=1;exitX=1;exitY=0.5;exitDx=0;exitDy=0;entryX=0;entryY=0.5;entryDx=0;entryDy=0;startArrow=ERmany;startFill=0;endArrow=ERmany;endFill=0;" parent="1" source="BOl2dM1y0eal6JlmimQa-77" target="BOl2dM1y0eal6JlmimQa-97" edge="1">
          <mxGeometry relative="1" as="geometry" />
        </mxCell>
        <mxCell id="BOl2dM1y0eal6JlmimQa-106" style="edgeStyle=orthogonalEdgeStyle;curved=1;rounded=0;orthogonalLoop=1;jettySize=auto;html=1;exitX=0.5;exitY=1;exitDx=0;exitDy=0;entryX=0.5;entryY=0;entryDx=0;entryDy=0;startArrow=ERmany;startFill=0;endArrow=ERmany;endFill=0;" parent="1" source="BOl2dM1y0eal6JlmimQa-93" target="BOl2dM1y0eal6JlmimQa-60" edge="1">
          <mxGeometry relative="1" as="geometry" />
        </mxCell>
        <mxCell id="BOl2dM1y0eal6JlmimQa-93" value="MealIngredients" style="shape=table;startSize=30;container=1;collapsible=1;childLayout=tableLayout;fixedRows=1;rowLines=0;fontStyle=1;align=center;resizeLast=1;" parent="1" vertex="1">
          <mxGeometry x="1093" y="644" width="254.66666666666674" height="130" as="geometry" />
        </mxCell>
        <mxCell id="BOl2dM1y0eal6JlmimQa-94" value="" style="shape=tableRow;horizontal=0;startSize=0;swimlaneHead=0;swimlaneBody=0;fillColor=none;collapsible=0;dropTarget=0;points=[[0,0.5],[1,0.5]];portConstraint=eastwest;top=0;left=0;right=0;bottom=1;" parent="BOl2dM1y0eal6JlmimQa-93" vertex="1">
          <mxGeometry y="30" width="254.66666666666674" height="30" as="geometry" />
        </mxCell>
        <mxCell id="BOl2dM1y0eal6JlmimQa-95" value="PK" style="shape=partialRectangle;connectable=0;fillColor=none;top=0;left=0;bottom=0;right=0;fontStyle=1;overflow=hidden;" parent="BOl2dM1y0eal6JlmimQa-94" vertex="1">
          <mxGeometry width="30" height="30" as="geometry">
            <mxRectangle width="30" height="30" as="alternateBounds" />
          </mxGeometry>
        </mxCell>
        <mxCell id="BOl2dM1y0eal6JlmimQa-96" value="mealIngredientID" style="shape=partialRectangle;connectable=0;fillColor=none;top=0;left=0;bottom=0;right=0;align=left;spacingLeft=6;fontStyle=5;overflow=hidden;" parent="BOl2dM1y0eal6JlmimQa-94" vertex="1">
          <mxGeometry x="30" width="224.66666666666674" height="30" as="geometry">
            <mxRectangle width="224.66666666666674" height="30" as="alternateBounds" />
          </mxGeometry>
        </mxCell>
        <mxCell id="BOl2dM1y0eal6JlmimQa-97" value="" style="shape=tableRow;horizontal=0;startSize=0;swimlaneHead=0;swimlaneBody=0;fillColor=none;collapsible=0;dropTarget=0;points=[[0,0.5],[1,0.5]];portConstraint=eastwest;top=0;left=0;right=0;bottom=0;" parent="BOl2dM1y0eal6JlmimQa-93" vertex="1">
          <mxGeometry y="60" width="254.66666666666674" height="30" as="geometry" />
        </mxCell>
        <mxCell id="BOl2dM1y0eal6JlmimQa-98" value="FK1" style="shape=partialRectangle;connectable=0;fillColor=none;top=0;left=0;bottom=0;right=0;editable=1;overflow=hidden;" parent="BOl2dM1y0eal6JlmimQa-97" vertex="1">
          <mxGeometry width="30" height="30" as="geometry">
            <mxRectangle width="30" height="30" as="alternateBounds" />
          </mxGeometry>
        </mxCell>
        <mxCell id="BOl2dM1y0eal6JlmimQa-99" value="mealID int NOT NULL" style="shape=partialRectangle;connectable=0;fillColor=none;top=0;left=0;bottom=0;right=0;align=left;spacingLeft=6;overflow=hidden;" parent="BOl2dM1y0eal6JlmimQa-97" vertex="1">
          <mxGeometry x="30" width="224.66666666666674" height="30" as="geometry">
            <mxRectangle width="224.66666666666674" height="30" as="alternateBounds" />
          </mxGeometry>
        </mxCell>
        <mxCell id="BOl2dM1y0eal6JlmimQa-100" value="" style="shape=tableRow;horizontal=0;startSize=0;swimlaneHead=0;swimlaneBody=0;fillColor=none;collapsible=0;dropTarget=0;points=[[0,0.5],[1,0.5]];portConstraint=eastwest;top=0;left=0;right=0;bottom=0;" parent="BOl2dM1y0eal6JlmimQa-93" vertex="1">
          <mxGeometry y="90" width="254.66666666666674" height="30" as="geometry" />
        </mxCell>
        <mxCell id="BOl2dM1y0eal6JlmimQa-101" value="FK2" style="shape=partialRectangle;connectable=0;fillColor=none;top=0;left=0;bottom=0;right=0;editable=1;overflow=hidden;" parent="BOl2dM1y0eal6JlmimQa-100" vertex="1">
          <mxGeometry width="30" height="30" as="geometry">
            <mxRectangle width="30" height="30" as="alternateBounds" />
          </mxGeometry>
        </mxCell>
        <mxCell id="BOl2dM1y0eal6JlmimQa-102" value="ingredientID int NOT NULL" style="shape=partialRectangle;connectable=0;fillColor=none;top=0;left=0;bottom=0;right=0;align=left;spacingLeft=6;overflow=hidden;" parent="BOl2dM1y0eal6JlmimQa-100" vertex="1">
          <mxGeometry x="30" width="224.66666666666674" height="30" as="geometry">
            <mxRectangle width="224.66666666666674" height="30" as="alternateBounds" />
          </mxGeometry>
        </mxCell>
      </root>
    </mxGraphModel>
  </diagram>
</mxfile>
